<svg id="Camada_1" data-name="Camada 1" xmlns="http://www.w3.org/2000/svg" viewBox="0 0 339.99 70.8"><defs><style>.cls-1{fill:#ff003a;}</style></defs><path class="cls-1" d="M0,17.6C0,6.4,5.9,0,16.7,0S33.39,5.93,33.36,16.32l-.09,33.75c0,10.38-5.93,17.1-16.68,18.78S0,65.2,0,54ZM10.94,53.3c0,4.87,2.18,6.41,5.67,5.94s5.68-2.56,5.69-7.3q0-18,.07-35.89c0-4.75-2.19-6.51-5.68-6.43s-5.7,2-5.71,6.85Q11,34.88,10.94,53.3Z"/><path class="cls-1" d="M50.44,18h-.2l-.16,45.44c-4,.48-5.93.73-9.88,1.25q.09-32,.2-64l13.8,0q5.38,18.3,11,36.54h.2Q65.42,19,65.5.7h9.8l-.24,60.07c-4.52.43-6.78.66-11.3,1.15Q57,40,50.44,18Z"/><path class="cls-1" d="M94.1,25.31c6.05-.19,9.07-.28,15.12-.44,0,3.28,0,4.92,0,8.2-6,.21-9.07.33-15.12.6,0,6.84,0,10.27-.06,17.12,7.61-.5,11.41-.72,19-1.09,0,3.27,0,4.9,0,8.17Q98,58.71,83,60L83.2.68l30,0,0,8.18c-7.6.07-11.4.1-19,.19C94.14,15.54,94.13,18.8,94.1,25.31Z"/><path class="cls-1" d="M152.88,13.46v2c0,5.73-2.21,9.32-7.12,11.22v.16c5.91,1.76,8.21,5.89,8.2,11.78v4.54c0,8.6-5.74,13.26-16.78,13.62-6.94.23-10.41.38-17.35.72q.08-28.43.17-56.85h16.6C148,.64,152.89,4.86,152.88,13.46ZM131,8.7c0,6,0,8.94,0,14.9l4.31-.07c4.1-.06,6.61-1.52,6.62-6V14.4c0-4-1.69-5.75-5.59-5.73Zm-.06,23c0,6.92,0,10.39,0,17.31l6.32-.2c3.71-.1,5.72-1.5,5.73-5.66V38.22c0-5.19-2.09-6.77-7.1-6.67Z"/><path class="cls-1" d="M160.6.64h11V56.25c-4.41,0-6.62,0-11,0Q160.57,28.47,160.6.64Z"/><path class="cls-1" d="M176.4.64h34c0,3.22,0,4.83,0,8.06l-11.51-.06.09,48c-4.41-.13-6.62-.18-11-.26q0-23.91-.05-47.8c-4.61,0-6.91,0-11.51,0Z"/><path class="cls-1" d="M226.28,26.06c5.68.15,8.53.23,14.21.41,0,3.32,0,5,0,8.3-5.68-.24-8.53-.35-14.22-.54,0,9.44,0,14.16.08,23.61-4.41-.25-6.62-.37-11-.57L215.2.65l29.1,0c0,3.33,0,5,0,8.34-7.24-.09-10.86-.12-18.11-.19C226.24,15.72,226.26,19.17,226.28,26.06Z"/><path class="cls-1" d="M249.6.67h11q.09,25.59.2,51.17c7.24.57,10.86.88,18.1,1.56,0,3.52,0,5.27,0,8.79q-14.52-1.62-29.11-2.76Q249.72,30.06,249.6.67Z"/><path class="cls-1" d="M283.5.71h11l.21,63.33c-4.39-.55-6.59-.81-11-1.32Q283.61,31.73,283.5.71Z"/><path class="cls-1" d="M339.19.8q-5.64,16.53-11.46,33Q334,52.25,340,70.8c-4.6-.79-6.91-1.17-11.52-1.92Q324.12,55,319.57,41.1l-.2,0c-3.57,10.23-5.35,15.24-8.91,25.08-4.11-.58-6.16-.86-10.27-1.4q6.18-16,12.18-32.1-5.7-16-11.58-31.93l11.4,0c3.31,9.69,5,14.62,8.25,24.66l.2,0c3.33-9.68,5-14.6,8.35-24.65Z"/></svg>